<?xml version="1.0" encoding="UTF-8"?>
<!DOCTYPE svg PUBLIC "-//W3C//DTD SVG 1.1//EN" "http://www.w3.org/Graphics/SVG/1.1/DTD/svg11.dtd">
<svg xmlns="http://www.w3.org/2000/svg" version="1.1" width="1000px" height="623px" style="shape-rendering:geometricPrecision; text-rendering:geometricPrecision; image-rendering:optimizeQuality; fill-rule:evenodd; clip-rule:evenodd" xmlns:xlink="http://www.w3.org/1999/xlink">
<g><path style="opacity:0.964" fill="#341759" d="M 498.5,-0.5 C 499.167,-0.5 499.833,-0.5 500.5,-0.5C 522.741,37.6429 544.741,75.9762 566.5,114.5C 559.61,115.811 552.777,115.811 546,114.5C 530.752,87.6695 515.252,61.0028 499.5,34.5C 483.748,61.0028 468.248,87.6695 453,114.5C 446.223,115.811 439.39,115.811 432.5,114.5C 454.528,76.1495 476.528,37.8162 498.5,-0.5 Z"/></g>
<g><path style="opacity:0.967" fill="#341759" d="M 566.5,170.5 C 572.176,170.334 577.843,170.501 583.5,171C 584.667,172.167 585.833,173.333 587,174.5C 587.667,265.5 587.667,356.5 587,447.5C 583.857,451.008 579.857,452.341 575,451.5C 572.167,451.333 569.333,451.167 566.5,451C 563.898,450.065 562.398,448.232 562,445.5C 561.333,355.833 561.333,266.167 562,176.5C 562.599,173.746 564.099,171.746 566.5,170.5 Z"/></g>
<g><path style="opacity:0.992" fill="#351759" d="M 347.5,170.5 C 351.833,170.5 356.167,170.5 360.5,170.5C 360.167,254.836 360.5,339.169 361.5,423.5C 370.988,427.049 380.321,430.882 389.5,435C 387.372,438.755 385.372,442.588 383.5,446.5C 353.507,447.5 323.507,447.833 293.5,447.5C 293.335,444.15 293.502,440.817 294,437.5C 303,430.167 312,422.833 321,415.5C 321.833,350.497 321.667,285.497 320.5,220.5C 311.833,214.5 303.167,208.5 294.5,202.5C 293.341,198.878 293.175,195.211 294,191.5C 312.034,184.771 329.868,177.771 347.5,170.5 Z"/></g>
<g><path style="opacity:0.976" fill="#8c015e" d="M 817.5,194.5 C 817.465,206.86 817.465,219.527 817.5,232.5C 805.442,225.385 793.276,218.385 781,211.5C 780.333,198.5 780.333,185.5 781,172.5C 793.313,179.733 805.48,187.067 817.5,194.5 Z"/></g>
<g><path style="opacity:0.992" fill="#92025d" d="M 722.5,238.5 C 721.833,226.167 721.167,213.833 720.5,201.5C 736.69,191.481 753.19,181.815 770,172.5C 770.833,185.513 770.666,198.513 769.5,211.5C 753.969,220.765 738.302,229.765 722.5,238.5 Z"/></g>
<g><path style="opacity:0.98" fill="#86015f" d="M 817.5,194.5 C 842.772,208.472 867.772,222.972 892.5,238C 881.398,244.301 870.231,250.467 859,256.5C 845.03,248.688 831.197,240.688 817.5,232.5C 817.465,219.527 817.465,206.86 817.5,194.5 Z"/></g>
<g><path style="opacity:0.977" fill="#98035c" d="M 720.5,201.5 C 721.167,213.833 721.833,226.167 722.5,238.5C 712.291,244.859 701.791,250.859 691,256.5C 679.737,250.789 668.904,244.456 658.5,237.5C 678.894,224.972 699.561,212.972 720.5,201.5 Z"/></g>
<g><path style="opacity:0.997" fill="#8c015e" d="M 817.5,244.5 C 817.5,288.833 817.5,333.167 817.5,377.5C 804.228,386.144 790.561,394.311 776.5,402C 773.536,401.689 770.869,400.522 768.5,398.5C 769.163,369.404 769.496,340.238 769.5,311C 769.492,281.62 768.825,252.453 767.5,223.5C 770.393,221.707 773.393,220.54 776.5,220C 790.561,227.689 804.228,235.856 817.5,244.5 Z"/></g>
<g><path style="opacity:0.998" fill="#91025d" d="M 767.5,223.5 C 768.825,252.453 769.492,281.62 769.5,311C 769.496,340.238 769.163,369.404 768.5,398.5C 756.698,392.098 745.031,385.431 733.5,378.5C 733.5,333.5 733.5,288.5 733.5,243.5C 744.833,236.833 756.167,230.167 767.5,223.5 Z"/></g>
<g><path style="opacity:0.976" fill="#87015f" d="M 817.5,244.5 C 829.721,250.709 841.721,257.376 853.5,264.5C 854.833,295.5 854.833,326.5 853.5,357.5C 841.721,364.624 829.721,371.291 817.5,377.5C 817.5,333.167 817.5,288.833 817.5,244.5 Z"/></g>
<g><path style="opacity:0.968" fill="#81005f" d="M 895.5,246.5 C 896.833,267.656 897.5,289.156 897.5,311C 897.167,332.5 896.833,354 896.5,375.5C 886.003,369.752 875.67,363.752 865.5,357.5C 864.167,326.5 864.167,295.5 865.5,264.5C 875.802,258.836 885.802,252.836 895.5,246.5 Z"/></g>
<g><path style="opacity:0.993" fill="#96025d" d="M 733.5,243.5 C 733.5,288.5 733.5,333.5 733.5,378.5C 721.442,371.385 709.276,364.385 697,357.5C 696.333,326.5 696.333,295.5 697,264.5C 709.276,257.615 721.442,250.615 733.5,243.5 Z"/></g>
<g><path style="opacity:0.991" fill="#9b035c" d="M 652.5,246.5 C 664.018,252.177 675.185,258.51 686,265.5C 686.667,295.833 686.667,326.167 686,356.5C 675.413,363.212 664.58,369.545 653.5,375.5C 652.5,332.505 652.167,289.505 652.5,246.5 Z"/></g>
<g><path style="opacity:0.981" fill="#341759" d="M 194.5,275.5 C 223.152,275.568 242.652,288.901 253,315.5C 258.807,330.981 261.307,346.981 260.5,363.5C 221.833,363.5 183.167,363.5 144.5,363.5C 145.022,382.583 151.689,399.083 164.5,413C 179.436,424.487 195.436,426.154 212.5,418C 226.458,410.536 239.458,401.702 251.5,391.5C 255.767,395.232 258.933,399.565 261,404.5C 242.925,419.12 224.758,433.62 206.5,448C 185.798,453.626 165.464,452.626 145.5,445C 125.044,434.29 111.544,417.79 105,395.5C 95.9013,358.881 105.401,328.047 133.5,303C 150.957,287.268 171.291,278.101 194.5,275.5 Z M 172.5,303.5 C 185.611,301.61 196.778,305.276 206,314.5C 211.807,325.424 215.307,337.091 216.5,349.5C 192.167,349.5 167.833,349.5 143.5,349.5C 142.875,333.523 148.208,320.023 159.5,309C 163.717,306.549 168.05,304.715 172.5,303.5 Z"/></g>
<g><path style="opacity:0.981" fill="#341759" d="M 411.5,279.5 C 437.167,279.5 462.833,279.5 488.5,279.5C 488.823,283.226 488.489,286.893 487.5,290.5C 463.46,310.844 439.46,331.177 415.5,351.5C 432.333,374.5 449.167,397.5 466,420.5C 467.731,422.617 469.898,424.117 472.5,425C 480.946,427.728 488.946,431.228 496.5,435.5C 494.628,439.412 492.628,443.245 490.5,447C 472.167,447.667 453.833,447.667 435.5,447C 415.833,419.333 396.167,391.667 376.5,364C 395.711,347.283 415.045,330.783 434.5,314.5C 424.695,307.197 415.028,299.697 405.5,292C 407.377,287.746 409.377,283.579 411.5,279.5 Z"/></g>
<g><path style="opacity:0.977" fill="#98035c" d="M 721.5,383.5 C 721.829,396.011 721.495,408.345 720.5,420.5C 699.525,409.013 678.859,397.013 658.5,384.5C 669.214,377.951 680.047,371.618 691,365.5C 701.626,370.89 711.792,376.89 721.5,383.5 Z"/></g>
<g><path style="opacity:0.981" fill="#86015f" d="M 817.5,427.5 C 817.803,415.296 817.47,402.963 816.5,390.5C 830.208,381.556 844.375,373.223 859,365.5C 870.56,371.362 881.727,377.862 892.5,385C 867.594,399.423 842.594,413.589 817.5,427.5 Z"/></g>
<g><path style="opacity:0.981" fill="#8c015e" d="M 816.5,390.5 C 817.47,402.963 817.803,415.296 817.5,427.5C 805.48,434.933 793.313,442.267 781,449.5C 780.667,449.167 780.333,448.833 780,448.5C 779.333,436.167 779.333,423.833 780,411.5C 791.814,403.845 803.981,396.845 816.5,390.5 Z"/></g>
<g><path style="opacity:0.986" fill="#92025d" d="M 721.5,383.5 C 737.769,391.969 753.769,400.969 769.5,410.5C 770.833,423.5 770.833,436.5 769.5,449.5C 752.939,440.059 736.605,430.392 720.5,420.5C 721.495,408.345 721.829,396.011 721.5,383.5 Z"/></g>
<g><path style="opacity:0.956" fill="#341759" d="M 859.5,622.5 C 619.5,622.5 379.5,622.5 139.5,622.5C 161.224,584.058 183.224,545.725 205.5,507.5C 212.167,506.167 218.833,506.167 225.5,507.5C 207.167,539.5 188.833,571.5 170.5,603.5C 389.833,604.833 609.167,604.833 828.5,603.5C 810.167,571.5 791.833,539.5 773.5,507.5C 780.167,506.167 786.833,506.167 793.5,507.5C 815.776,545.725 837.776,584.058 859.5,622.5 Z"/></g>
</svg>
